<svg width="24" height="24" viewBox="0 0 24 24" fill="none" xmlns="http://www.w3.org/2000/svg">
<mask id="mask0_209_4692" style="mask-type:alpha" maskUnits="userSpaceOnUse" x="0" y="0" width="24" height="24">
<rect width="24" height="24" fill="#D9D9D9"/>
</mask>
<g mask="url(#mask0_209_4692)">
<path fill-rule="evenodd" clip-rule="evenodd" d="M19.7844 16.5199C19.6538 16.7443 19.6015 17.0075 19.6524 17.2621L19.9558 18.7791C20.0958 19.4789 19.4788 20.0958 18.7791 19.9558L17.2621 19.6524C17.0075 19.6015 16.7443 19.6538 16.5199 19.7844C15.1916 20.5573 13.6475 21 12 21C7.02944 21 3 16.9706 3 12C3 7.02944 7.02944 3 12 3C16.9706 3 21 7.02944 21 12C21 13.6475 20.5573 15.1916 19.7844 16.5199ZM15 10.5V7.5H9V10.5C9 12.0727 10.2101 13.3627 11.75 13.4897V15.3645C11.3747 15.3959 11.004 15.498 10.6584 15.6708L9.37889 16.3106C9.2845 16.3577 9.31808 16.5 9.42361 16.5H14.5764C14.6819 16.5 14.7155 16.3577 14.6211 16.3106L13.3416 15.6708C12.996 15.498 12.6253 15.3959 12.25 15.3645V13.4897C13.7899 13.3627 15 12.0727 15 10.5Z" fill="#B8B8B8"/>
</g>
</svg>
