<svg width="24" height="24" viewBox="0 0 24 24" fill="none" xmlns="http://www.w3.org/2000/svg">
<mask id="mask0_209_7236" style="mask-type:alpha" maskUnits="userSpaceOnUse" x="0" y="0" width="24" height="24">
<rect width="24" height="24" fill="#D9D9D9"/>
</mask>
<g mask="url(#mask0_209_7236)">
<path fill-rule="evenodd" clip-rule="evenodd" d="M5 1C2.79086 1 1 2.79086 1 5V19C1 21.2091 2.79086 23 5 23H19C21.2091 23 23 21.2091 23 19V5C23 2.79086 21.2091 1 19 1H5ZM9.55554 7.11111C9.55554 7.78612 9.00834 8.33333 8.33331 8.33333C7.65829 8.33333 7.11109 7.78612 7.11109 7.11111C7.11109 6.43611 7.65829 5.88889 8.33331 5.88889C9.00834 5.88889 9.55554 6.43611 9.55554 7.11111ZM6.95039 18.1111H18.4657C19.4005 18.1111 19.9893 17.1044 19.531 16.2897L16.1208 10.2271C15.6535 9.39644 14.4575 9.39644 13.9903 10.2271L11.7928 14.1337L10.5725 12.3032C10.0887 11.5775 9.02236 11.5775 8.53859 12.3032L5.93344 16.2109C5.39195 17.0232 5.97421 18.1111 6.95039 18.1111Z" fill="#B8B8B8"/>
</g>
</svg>
