<svg width="16" height="16" viewBox="0 0 16 16" fill="none" xmlns="http://www.w3.org/2000/svg">
  <mask id="mask0_196_5598" style="mask-type:alpha" maskUnits="userSpaceOnUse" x="0" y="0" width="16" height="16">
    <rect width="16" height="16" fill="#D9D9D9" />
  </mask>
  <g mask="url(#mask0_196_5598)">
    <path fill-rule="evenodd" clip-rule="evenodd"
      d="M13.1281 11.6404C13.0772 11.3858 13.1307 11.1232 13.2562 10.8958C13.7302 10.0373 14 9.05014 14 8C14 4.68629 11.3137 2 8 2C4.68629 2 2 4.68629 2 8C2 11.3137 4.68629 14 8 14C9.05014 14 10.0373 13.7302 10.8958 13.2562C11.1232 13.1307 11.3858 13.0772 11.6404 13.1281L12.0291 13.2058C12.7288 13.3458 13.3458 12.7289 13.2058 12.0291L13.1281 11.6404Z"
      fill="#D9D9D9" />
  </g>
</svg>