<svg width="24" height="24" viewBox="0 0 24 24" fill="none" xmlns="http://www.w3.org/2000/svg">
<mask id="mask0_211_22031" style="mask-type:alpha" maskUnits="userSpaceOnUse" x="0" y="0" width="24" height="24">
<rect width="24" height="24" fill="#F6F6F6"/>
</mask>
<g mask="url(#mask0_211_22031)">
<path fill-rule="evenodd" clip-rule="evenodd" d="M10.7073 5.70711C11.0978 5.31658 11.0978 4.68342 10.7073 4.29289C10.3167 3.90237 9.68357 3.90237 9.29304 4.29289L2.29757 11.2884C2.29452 11.2914 2.2915 11.2944 2.28849 11.2974L1.58594 12L2.28847 12.7025C2.29149 12.7056 2.29453 12.7086 2.29759 12.7116L9.29304 19.7071C9.68357 20.0976 10.3167 20.0976 10.7073 19.7071C11.0978 19.3166 11.0978 18.6834 10.7073 18.2929L5.41436 13H21.0001C21.5524 13 22.0001 12.5523 22.0001 12C22.0001 11.4477 21.5524 11 21.0001 11H5.41436L10.7073 5.70711Z" fill="#1C1C1C"/>
</g>
</svg>
