<svg width="32" height="32" viewBox="0 0 32 32" fill="none" xmlns="http://www.w3.org/2000/svg">
  <mask id="mask0_33_2119" style="mask-type:alpha" maskUnits="userSpaceOnUse" x="0" y="0" width="32" height="32">
    <rect width="32" height="32" fill="#D9D9D9" />
  </mask>
  <g mask="url(#mask0_33_2119)">
    <path fill-rule="evenodd" clip-rule="evenodd"
      d="M14.5858 4.58579L4.58579 14.5858C4.21071 14.9609 4 15.4696 4 16V25.1716C4 26.2761 4.89543 27.1716 6 27.1716H13V21.1716C13 20.6193 13.4477 20.1716 14 20.1716H18C18.5523 20.1716 19 20.6193 19 21.1716V27.1716H26C27.1046 27.1716 28 26.2761 28 25.1716V16C28 15.4696 27.7893 14.9609 27.4142 14.5858L17.4142 4.58579C16.6332 3.80474 15.3668 3.80474 14.5858 4.58579Z"
      fill="#D9D9D9" />
  </g>
</svg>