<svg width="24" height="24" viewBox="0 0 24 24" fill="none" xmlns="http://www.w3.org/2000/svg">
<mask id="mask0_209_841" style="mask-type:alpha" maskUnits="userSpaceOnUse" x="0" y="0" width="24" height="24">
<rect width="24" height="24" fill="#D9D9D9"/>
</mask>
<g mask="url(#mask0_209_841)">
<path fill-rule="evenodd" clip-rule="evenodd" d="M16.7143 10.7143C16.7143 14.028 14.028 16.7142 10.7143 16.7142C7.40059 16.7142 4.71429 14.028 4.71429 10.7143C4.71429 7.40056 7.40059 4.71428 10.7143 4.71428C14.028 4.71428 16.7143 7.40056 16.7143 10.7143ZM15.5294 16.7416C14.2097 17.7973 12.5357 18.4285 10.7143 18.4285C6.45381 18.4285 3 14.9747 3 10.7143C3 6.45379 6.45381 3 10.7143 3C14.9748 3 18.4286 6.45379 18.4286 10.7143C18.4286 12.5357 17.7973 14.2097 16.7416 15.5294L20.749 19.5368C21.0837 19.8715 21.0837 20.4142 20.749 20.7489C20.4142 21.0837 19.8715 21.0837 19.5368 20.7489L15.5294 16.7416Z" fill="#B8B8B8"/>
</g>
</svg>
