<svg width="98" height="98" viewBox="0 0 98 98" fill="none" xmlns="http://www.w3.org/2000/svg">
<mask id="mask0_203_18185" style="mask-type:alpha" maskUnits="userSpaceOnUse" x="0" y="0" width="98" height="98">
<rect width="98" height="98" fill="#D9D9D9"/>
</mask>
<g mask="url(#mask0_203_18185)">
<path fill-rule="evenodd" clip-rule="evenodd" d="M80.1404 68.5242C80.0023 68.7441 79.9516 69.0082 80.0026 69.2628L82.3933 81.2166C82.5333 81.9164 81.9164 82.5333 81.2166 82.3933L69.2628 80.0026C69.0082 79.9516 68.7441 80.0023 68.5242 80.1404C62.8674 83.6945 56.1738 85.75 49 85.75C28.7035 85.75 12.25 69.2965 12.25 49C12.25 28.7035 28.7035 12.25 49 12.25C69.2965 12.25 85.75 28.7035 85.75 49C85.75 56.1738 83.6945 62.8674 80.1404 68.5242ZM61.25 42.875V30.625H36.75V42.875C36.75 49.2967 41.6913 54.5643 47.9792 55.0831V62.7385C46.4469 62.8666 44.9331 63.2835 43.5216 63.9892L38.2971 66.6014C37.9117 66.7941 38.0488 67.375 38.4797 67.375H59.5203C59.9512 67.375 60.0883 66.7941 59.7029 66.6014L54.4784 63.9892C53.0669 63.2834 51.5531 62.8666 50.0208 62.7385V55.0831C56.3087 54.5643 61.25 49.2967 61.25 42.875Z" fill="#B8B8B8"/>
</g>
</svg>
