<svg width="24" height="24" viewBox="0 0 24 24" fill="none" xmlns="http://www.w3.org/2000/svg">
<mask id="mask0_209_13747" style="mask-type:alpha" maskUnits="userSpaceOnUse" x="0" y="0" width="24" height="24">
<rect width="24" height="24" fill="#D9D9D9"/>
</mask>
<g mask="url(#mask0_209_13747)">
<path fill-rule="evenodd" clip-rule="evenodd" d="M12 22C12 22 20 17.5556 20 10.0808C20 5.6179 16.4183 2 12 2C7.58172 2 4 5.6179 4 10.0808C4 16.4444 12 22 12 22ZM12 13C13.6569 13 15 11.6569 15 10C15 8.34315 13.6569 7 12 7C10.3431 7 9 8.34315 9 10C9 11.6569 10.3431 13 12 13Z" fill="#B8B8B8"/>
</g>
</svg>
