<svg width="43" height="42" viewBox="0 0 43 42" fill="none" xmlns="http://www.w3.org/2000/svg">
<path fill-rule="evenodd" clip-rule="evenodd" d="M39.3862 32.0094C39.2499 32.2304 39.1988 32.4942 39.2498 32.7489L40.4558 38.7791C40.5958 39.4789 39.9789 40.0958 39.2791 39.9558L33.2489 38.7498C32.9942 38.6988 32.7304 38.7499 32.5094 38.8862C29.3083 40.8608 25.5372 42 21.5 42C9.90202 42 0.5 32.598 0.5 21C0.5 9.40202 9.90202 0 21.5 0C33.098 0 42.5 9.40202 42.5 21C42.5 25.0372 41.3608 28.8083 39.3862 32.0094ZM28.5 17.5V10.5H14.5V17.5C14.5 21.1696 17.3236 24.1796 20.9167 24.476V28.8506C20.0411 28.9237 19.1761 29.162 18.3695 29.5652L15.3841 31.058C15.1638 31.1681 15.2422 31.5 15.4884 31.5H27.5116C27.7578 31.5 27.8362 31.1681 27.6159 31.058L24.6305 29.5652C23.8239 29.162 22.9589 28.9237 22.0833 28.8506V24.476C25.6764 24.1796 28.5 21.1696 28.5 17.5Z" fill="currentColor"/>
</svg>
