<svg width="32" height="32" viewBox="0 0 32 32" fill="none" xmlns="http://www.w3.org/2000/svg">
  <mask id="mask0_33_2117" style="mask-type:alpha" maskUnits="userSpaceOnUse" x="0" y="0" width="32" height="32">
    <rect width="32" height="32" fill="#D9D9D9" />
  </mask>
  <g mask="url(#mask0_33_2117)">
    <path fill-rule="evenodd" clip-rule="evenodd"
      d="M26.3107 22.1427C26.1776 22.3657 26.1258 22.6292 26.1768 22.8838L26.7058 25.5291C26.8458 26.2288 26.2288 26.8458 25.5291 26.7058L22.8838 26.1768C22.6292 26.1258 22.3657 26.1776 22.1427 26.3107C20.3458 27.3836 18.2449 28 16 28C9.37258 28 4 22.6274 4 16C4 9.37258 9.37258 4 16 4C22.6274 4 28 9.37258 28 16C28 18.2449 27.3836 20.3458 26.3107 22.1427ZM20 14V10H12V14C12 16.0969 13.6135 17.8169 15.6667 17.9863V20.486C15.1663 20.5279 14.672 20.664 14.2111 20.8944L12.5052 21.7474C12.3793 21.8103 12.4241 22 12.5648 22H19.4352C19.5759 22 19.6207 21.8103 19.4948 21.7474L17.7889 20.8944C17.328 20.664 16.8337 20.5279 16.3333 20.486V17.9863C18.3865 17.8169 20 16.0969 20 14Z"
      fill="#D9D9D9" />
  </g>
</svg>