<svg width="16" height="16" viewBox="0 0 16 16" fill="none" xmlns="http://www.w3.org/2000/svg">
  <mask id="mask0_196_8538" style="mask-type:alpha" maskUnits="userSpaceOnUse" x="0" y="0" width="16" height="16">
    <rect width="16" height="16" fill="#D9D9D9" />
  </mask>
  <g mask="url(#mask0_196_8538)">
    <path
      d="M4.52632 6.24992C4.52632 5.28342 5.37462 4.49992 6.42105 4.49992H10.8421C11.1909 4.49992 11.4737 4.23875 11.4737 3.91659C11.4737 3.59442 11.1909 3.33325 10.8421 3.33325H6.42105C4.677 3.33325 3.26316 4.63909 3.26316 6.24992V9.5083L3.07817 9.33744C2.83153 9.10963 2.43163 9.10963 2.18499 9.33744C1.93834 9.56525 1.93834 9.93459 2.18499 10.1624L3.44814 11.3291C3.57147 11.443 3.7331 11.4999 3.89474 11.4999C3.98037 11.4999 4.06203 11.4842 4.13649 11.4557C4.21099 11.4272 4.28078 11.385 4.34133 11.3291C4.40188 11.2731 4.44757 11.2087 4.47839 11.1399C4.50927 11.0711 4.52632 10.9957 4.52632 10.9166V6.24992Z"
      fill="#B8B8B8" />
    <path
      d="M12.347 4.54418C12.2731 4.51587 12.1921 4.50015 12.1072 4.49992C12.1065 4.49992 12.1059 4.49992 12.1053 4.49992C12.1046 4.49992 12.104 4.49992 12.1034 4.49992C11.9304 4.50039 11.7738 4.56508 11.66 4.66954C11.6591 4.67036 11.6582 4.67118 11.6573 4.67201C11.5974 4.72765 11.5522 4.79167 11.5216 4.85996C11.491 4.92823 11.4739 5.00305 11.4737 5.0815C11.4737 5.08209 11.4737 5.08267 11.4737 5.08325V9.74992C11.4737 10.7164 10.6254 11.4999 9.57895 11.4999H5.15789C4.80908 11.4999 4.52632 11.7611 4.52632 12.0833C4.52632 12.4054 4.80908 12.6666 5.15789 12.6666H9.57895C11.323 12.6666 12.7368 11.3608 12.7368 9.74992V6.49154L12.9218 6.6624C13.1685 6.8902 13.5684 6.8902 13.815 6.6624C14.0617 6.43459 14.0617 6.06525 13.815 5.83744L12.5519 4.67077C12.4913 4.61485 12.4215 4.57265 12.347 4.54418Z"
      fill="#B8B8B8" />
  </g>
</svg>