<svg width="32" height="32" viewBox="0 0 32 32" fill="none" xmlns="http://www.w3.org/2000/svg">
  <mask id="mask0_33_2118" style="mask-type:alpha" maskUnits="userSpaceOnUse" x="0" y="0" width="32" height="32">
    <rect width="32" height="32" fill="currentColor" />
  </mask>
  <g mask="url(#mask0_33_2118)">
    <path fill-rule="evenodd" clip-rule="evenodd"
      d="M22.2858 14.2857C22.2858 18.7039 18.704 22.2857 14.2857 22.2857C9.86745 22.2857 6.28572 18.7039 6.28572 14.2857C6.28572 9.86742 9.86745 6.28571 14.2857 6.28571C18.704 6.28571 22.2858 9.86742 22.2858 14.2857ZM20.7059 22.3221C18.9463 23.7297 16.7143 24.5714 14.2857 24.5714C8.60508 24.5714 4 19.9663 4 14.2857C4 8.60506 8.60508 4 14.2857 4C19.9664 4 24.5715 8.60506 24.5715 14.2857C24.5715 16.7143 23.7298 18.9463 22.3222 20.7059L27.6653 26.049C28.1116 26.4953 28.1116 27.2189 27.6653 27.6652C27.219 28.1116 26.4954 28.1116 26.049 27.6652L20.7059 22.3221Z"
      fill="currentColor" />
  </g>
</svg>