<svg width="16" height="16" viewBox="0 0 16 16" fill="none" xmlns="http://www.w3.org/2000/svg">
  <mask id="mask0_196_5618" style="mask-type:alpha" maskUnits="userSpaceOnUse" x="0" y="0" width="16" height="16">
    <rect width="16" height="16" fill="#F6F6F6" />
  </mask>
  <g mask="url(#mask0_196_5618)">
    <path fill-rule="evenodd" clip-rule="evenodd"
      d="M5.45609 6.66444C5.22466 6.88368 4.84945 6.88368 4.61803 6.66444C4.38661 6.4452 4.38661 6.08974 4.61803 5.87049L8.00004 2.6665L11.382 5.87049C11.6135 6.08974 11.6135 6.4452 11.382 6.66444C11.1506 6.88368 10.7754 6.88368 10.544 6.66444L8.59267 4.81583V10.7587C8.59267 11.0688 8.32736 11.3201 8.00007 11.3201C7.67279 11.3201 7.40748 11.0688 7.40748 10.7587V4.81576L5.45609 6.66444ZM2.66669 8.96667C2.66669 8.27766 3.19731 7.71911 3.85188 7.71911H4.31279C4.64007 7.71911 4.90538 7.99838 4.90538 8.34289C4.90538 8.68739 4.64007 8.96667 4.31279 8.96667H3.85188V12.0856H12.1482V8.96667H11.6873C11.36 8.96667 11.0947 8.68739 11.0947 8.34289C11.0947 7.99838 11.36 7.71911 11.6873 7.71911H12.1482C12.8028 7.71911 13.3334 8.27766 13.3334 8.96667V12.0856C13.3334 12.7746 12.8028 13.3331 12.1482 13.3331H3.85188C3.19732 13.3331 2.66669 12.7746 2.66669 12.0856V8.96667Z"
      fill="#B8B8B8" />
  </g>
</svg>